<svg xmlns="http://www.w3.org/2000/svg" viewBox="0 0 64 64">
  <defs>
    <linearGradient id="bg" x1="0" y1="0" x2="64" y2="64" gradientUnits="userSpaceOnUse">
      <stop offset="0" stop-color="#3b82f6"/>
      <stop offset="1" stop-color="#1e40af"/>
    </linearGradient>
    <radialGradient id="dot" cx="0.5" cy="0.5" r="0.5">
      <stop offset="0" stop-color="#fff"/>
      <stop offset="1" stop-color="#dbeafe"/>
    </radialGradient>
  </defs>
  <rect width="64" height="64" rx="14" fill="url(#bg)"/>
  <g stroke="#fff" stroke-width="1.6" stroke-linecap="round" opacity="0.85">
    <line x1="14" y1="14" x2="50" y2="14"/>
    <line x1="50" y1="14" x2="50" y2="50"/>
    <line x1="50" y1="50" x2="14" y2="50"/>
    <line x1="14" y1="50" x2="14" y2="14"/>
    <line x1="14" y1="14" x2="32" y2="32"/>
    <line x1="50" y1="14" x2="32" y2="32"/>
    <line x1="50" y1="50" x2="32" y2="32"/>
    <line x1="14" y1="50" x2="32" y2="32"/>
  </g>
  <g fill="url(#dot)">
    <circle cx="14" cy="14" r="3.4"/>
    <circle cx="50" cy="14" r="3.4"/>
    <circle cx="50" cy="50" r="3.4"/>
    <circle cx="14" cy="50" r="3.4"/>
  </g>
  <circle cx="32" cy="32" r="5.4" fill="#fff"/>
  <circle cx="32" cy="32" r="2.4" fill="#1e40af"/>
</svg>
